<svg width="48" height="48" viewBox="0 0 48 48" fill="none" xmlns="http://www.w3.org/2000/svg">
<path fill-rule="evenodd" clip-rule="evenodd" d="M41.46 14.239L41.18 13.739C40.8188 13.1344 40.3094 12.6319 39.7 12.279L26.28 4.53902C25.6724 4.18652 24.9826 4.00026 24.28 3.99902H23.7C22.9974 4.00026 22.3076 4.18652 21.7 4.53902L8.28 12.299C7.67394 12.6495 7.17052 13.153 6.82 13.759L6.54 14.259C6.1875 14.8667 6.00124 15.5565 6 16.259V31.759C6.00124 32.4616 6.1875 33.1514 6.54 33.759L6.82 34.259C7.17958 34.858 7.68098 35.3594 8.28 35.719L21.72 43.459C22.3246 43.8188 23.0164 44.0056 23.72 43.999H24.28C24.9826 43.9978 25.6724 43.8116 26.28 43.459L39.7 35.699C40.312 35.3564 40.8174 34.851 41.16 34.239L41.46 33.739C41.8082 33.1296 41.9942 32.441 42 31.739V16.239C41.9988 15.5365 41.8126 14.8467 41.46 14.239ZM23.7 7.99902H24.28L36 14.759L24 21.679L12 14.759L23.7 7.99902ZM26 38.999L37.7 32.239L38 31.739V18.219L26 25.159V38.999Z" fill="black"/>
</svg>
