<svg width="24" height="25" viewBox="0 0 24 25" fill="none" xmlns="http://www.w3.org/2000/svg">
<path d="M21.5928 8.09168C21.4789 7.66908 21.2563 7.28368 20.9472 6.97385C20.6381 6.66401 20.2532 6.44054 19.8308 6.32568C18.2648 5.89568 11.9998 5.88868 11.9998 5.88868C11.9998 5.88868 5.73584 5.88168 4.16884 6.29268C3.74677 6.41283 3.36266 6.63946 3.05341 6.95081C2.74415 7.26217 2.52013 7.6478 2.40284 8.07068C1.98984 9.63668 1.98584 12.8847 1.98584 12.8847C1.98584 12.8847 1.98184 16.1487 2.39184 17.6987C2.62184 18.5557 3.29684 19.2327 4.15484 19.4637C5.73684 19.8937 11.9848 19.9007 11.9848 19.9007C11.9848 19.9007 18.2498 19.9077 19.8158 19.4977C20.2383 19.383 20.6236 19.1601 20.9335 18.8509C21.2434 18.5417 21.4672 18.1569 21.5828 17.7347C21.9968 16.1697 21.9998 12.9227 21.9998 12.9227C21.9998 12.9227 22.0198 9.65768 21.5928 8.09168ZM9.99584 15.8937L10.0008 9.89368L15.2078 12.8987L9.99584 15.8937Z" fill="black"/>
</svg>
