<svg width="24" height="25" viewBox="0 0 24 25" fill="none" xmlns="http://www.w3.org/2000/svg">
<path fill-rule="evenodd" clip-rule="evenodd" d="M16 4.13135H8C5.23858 4.13135 3 6.36993 3 9.13135V17.1313C3 19.8927 5.23858 22.1313 8 22.1313H16C18.7614 22.1313 21 19.8927 21 17.1313V9.13135C21 6.36993 18.7614 4.13135 16 4.13135ZM19.25 17.1313C19.2445 18.9239 17.7926 20.3758 16 20.3813H8C6.20735 20.3758 4.75549 18.9239 4.75 17.1313V9.13135C4.75549 7.3387 6.20735 5.88684 8 5.88135H16C17.7926 5.88684 19.2445 7.3387 19.25 9.13135V17.1313ZM16.75 9.38135C17.3023 9.38135 17.75 8.93363 17.75 8.38135C17.75 7.82907 17.3023 7.38135 16.75 7.38135C16.1977 7.38135 15.75 7.82907 15.75 8.38135C15.75 8.93363 16.1977 9.38135 16.75 9.38135ZM12 8.63135C9.51472 8.63135 7.5 10.6461 7.5 13.1313C7.5 15.6166 9.51472 17.6313 12 17.6313C14.4853 17.6313 16.5 15.6166 16.5 13.1313C16.5027 11.937 16.0294 10.7909 15.1849 9.94643C14.3404 9.10194 13.1943 8.62869 12 8.63135ZM9.25 13.1313C9.25 14.6501 10.4812 15.8813 12 15.8813C13.5188 15.8813 14.75 14.6501 14.75 13.1313C14.75 11.6125 13.5188 10.3813 12 10.3813C10.4812 10.3813 9.25 11.6125 9.25 13.1313Z" fill="black"/>
</svg>
