<svg width="24" height="25" viewBox="0 0 24 25" fill="none" xmlns="http://www.w3.org/2000/svg">
<path fill-rule="evenodd" clip-rule="evenodd" d="M4.5 4.13135C3.67157 4.13135 3 4.80292 3 5.63135V20.6313C3 21.4597 3.67157 22.1313 4.5 22.1313H19.5C20.3284 22.1313 21 21.4597 21 20.6313V5.63135C21 4.80292 20.3284 4.13135 19.5 4.13135H4.5ZM8.52076 8.13407C8.52639 9.09032 7.81061 9.67954 6.96123 9.67532C6.16107 9.6711 5.46357 9.03407 5.46779 8.13548C5.47201 7.29032 6.13998 6.6111 7.00764 6.63079C7.88795 6.65048 8.52639 7.29595 8.52076 8.13407ZM12.2797 10.8931H9.75971H9.7583V19.4529H12.4217V19.2532C12.4217 18.8733 12.4214 18.4933 12.4211 18.1132C12.4203 17.0994 12.4194 16.0845 12.4246 15.071C12.426 14.8249 12.4372 14.569 12.5005 14.3341C12.7381 13.4566 13.5271 12.8899 14.4074 13.0292C14.9727 13.1177 15.3467 13.4454 15.5042 13.9784C15.6013 14.3116 15.6449 14.6702 15.6491 15.0176C15.6605 16.0652 15.6589 17.1128 15.6573 18.1605C15.6567 18.5303 15.6561 18.9003 15.6561 19.2701V19.4515H18.328V19.2462C18.328 18.7942 18.3278 18.3423 18.3275 17.8904C18.327 16.7609 18.3264 15.6314 18.3294 14.5015C18.3308 13.991 18.276 13.4876 18.1508 12.994C17.9638 12.2599 17.5771 11.6524 16.9485 11.2137C16.5027 10.9015 16.0133 10.7004 15.4663 10.6779C15.404 10.6754 15.3412 10.672 15.2781 10.6686C14.9984 10.6534 14.7141 10.6381 14.4467 10.692C13.6817 10.8453 13.0096 11.1954 12.5019 11.8127C12.4429 11.8835 12.3852 11.9554 12.2991 12.0627L12.2797 12.087V10.8931ZM5.68164 19.4557H8.33242V10.8987H5.68164V19.4557Z" fill="black"/>
</svg>
