<svg width="160" height="56" viewBox="0 0 160 56" fill="none" xmlns="http://www.w3.org/2000/svg">
<path fill-rule="evenodd" clip-rule="evenodd" d="M45.5517 19.2355L45.8029 19.684C46.1191 20.2289 46.2861 20.8476 46.2872 21.4776V35.3791C46.282 36.0086 46.1152 36.6262 45.8029 37.1728L45.5338 37.6213C45.2266 38.1703 44.7733 38.6234 44.2245 38.9307L32.1884 45.8903C31.6434 46.2065 31.0248 46.3735 30.3947 46.3747H29.8925C29.2615 46.3806 28.641 46.213 28.0987 45.8903L16.0449 38.9487C15.5076 38.6261 15.0579 38.1765 14.7354 37.6392L14.4843 37.1908C14.1682 36.6457 14.0011 36.0271 14 35.397V21.4955C14.0011 20.8656 14.1682 20.2468 14.4843 19.7019L14.7354 19.2535C15.0498 18.7099 15.5013 18.2583 16.0449 17.944L28.0808 10.9843C28.6258 10.6682 29.2444 10.5011 29.8745 10.5H30.3947C31.0248 10.5011 31.6434 10.6682 32.1884 10.9843L44.2245 17.9261C44.7711 18.2425 45.2279 18.6932 45.5517 19.2355ZM30.3947 14.0874H29.8745L19.3812 20.1502L30.1436 26.3565L40.906 20.1502L30.3947 14.0874ZM42.4306 35.8276L31.9373 41.8905V29.4778L42.6997 23.2536V35.3792L42.4306 35.8276ZM93.0633 37.0475H89.3438V17.4169H93.0633V37.0475ZM59.5 37.4683H63.6586V30.3392H65.4667L69.8836 37.4683H74.3263L69.4445 29.6161C71.6142 28.9703 73.2415 27.498 73.2415 24.7084V24.605C73.2415 20.7823 70.4777 19 66.1124 19H59.5V37.4683ZM63.6586 27.498V22.2029H66.0091C68.0239 22.2029 69.1604 22.8487 69.1604 24.7342V24.8375C69.1604 26.6198 68.1014 27.498 66.0091 27.498H63.6586ZM81.0806 37.3309C84.7742 37.3309 87.0989 35.7037 87.538 32.7849H83.9993C83.7668 33.9214 82.9145 34.6705 81.1839 34.6705C79.1433 34.6705 77.9294 33.379 77.826 31.1318H87.5639V30.0986C87.5639 25.2684 84.4643 23.2279 80.9772 23.2279C77.0511 23.2279 74.029 25.9917 74.029 30.2536V30.4602C74.029 34.7738 76.9994 37.3309 81.0806 37.3309ZM77.8777 28.833C78.1618 26.9215 79.2983 25.8109 80.9772 25.8109C82.7595 25.8109 83.7927 26.7924 83.9219 28.833H77.8777ZM100.198 37.332C102.42 37.332 103.789 36.2988 104.486 34.9299V37.0479H108.206V23.5389H104.486V31.4687C104.486 33.4576 103.246 34.4391 101.671 34.4391C100.07 34.4391 99.32 33.5609 99.32 31.727V23.5389H95.6009V32.2436C95.6009 35.7822 97.5639 37.332 100.198 37.332ZM114.491 37.0468H110.745V23.5378H114.491V25.6042C115.162 24.3385 116.608 23.2279 118.623 23.2279C120.406 23.2279 121.749 23.977 122.395 25.5784C123.479 23.9511 125.236 23.2279 126.94 23.2279C129.446 23.2279 131.383 24.8035 131.383 28.3939V37.0468H127.664V28.8071C127.664 27.0765 126.888 26.3016 125.545 26.3016C124.099 26.3016 122.937 27.2315 122.937 29.0654V37.0468H119.217V28.8071C119.217 27.0765 118.417 26.3016 117.099 26.3016C115.653 26.3016 114.491 27.2315 114.491 29.0654V37.0468ZM140.031 37.3309C143.726 37.3309 146.051 35.7037 146.489 32.7849H142.95C142.718 33.9214 141.865 34.6705 140.135 34.6705C138.094 34.6705 136.881 33.379 136.777 31.1318H146.515V30.0986C146.515 25.2684 143.415 23.2279 139.928 23.2279C136.002 23.2279 132.98 25.9917 132.98 30.2536V30.4602C132.98 34.7738 135.95 37.3309 140.031 37.3309ZM136.829 28.833C137.113 26.9215 138.25 25.8109 139.928 25.8109C141.711 25.8109 142.744 26.7924 142.873 28.833H136.829Z" fill="black"/>
</svg>
