<svg width="335" height="188" viewBox="0 0 335 188" fill="none" xmlns="http://www.w3.org/2000/svg">
<rect width="335" height="188" fill="#CCCCCC"/>
<rect width="335" height="188" fill="black" fill-opacity="0.5"/>
<path fill-rule="evenodd" clip-rule="evenodd" d="M104 34H232C240.837 34 248 40.7155 248 49V139C248 147.285 240.837 154 232 154H104C95.1632 154 88 147.285 88 139V49C88 40.7155 95.1632 34 104 34ZM161.36 118.15L192.48 98.65C194.157 97.6255 195.168 95.8765 195.168 94C195.168 92.1235 194.157 90.3745 192.48 89.35L161.36 69.85C159.522 68.686 157.15 68.5667 155.19 69.5402C153.231 70.5137 152.004 72.421 152 74.5V113.5C152.004 115.579 153.231 117.486 155.19 118.46C157.15 119.433 159.522 119.314 161.36 118.15Z" fill="black" fill-opacity="0.15"/>
<path fill-rule="evenodd" clip-rule="evenodd" d="M141.333 94.0002C141.333 79.2726 153.272 67.3335 168 67.3335C175.072 67.3335 181.855 70.143 186.856 75.144C191.857 80.145 194.666 86.9278 194.666 94.0002C194.666 108.728 182.727 120.667 168 120.667C153.272 120.667 141.333 108.728 141.333 94.0002ZM163.12 105.414L178.666 95.7069C179.248 95.3343 179.6 94.6911 179.6 94.0002C179.6 93.3094 179.248 92.6661 178.666 92.2936L163.066 82.5869C162.452 82.1995 161.676 82.1757 161.039 82.5246C160.402 82.8736 160.004 83.5405 160 84.2669V103.734C159.991 104.478 160.396 105.165 161.051 105.518C161.706 105.87 162.503 105.83 163.12 105.414Z" fill="white"/>
</svg>
