<svg width="141" height="56" viewBox="0 0 141 56" fill="none" xmlns="http://www.w3.org/2000/svg">
<path fill-rule="evenodd" clip-rule="evenodd" d="M39.0702 16.7489L27.5607 39.2489H16.75L21.5667 29.9239H21.3506C17.3769 35.0824 11.4479 38.4783 3 39.2489V30.053C3 30.053 8.40431 29.7338 11.5814 26.3936H3V16.7491H12.6445V24.6816L12.861 24.6807L16.8021 16.7491H24.096V24.6313L24.3124 24.6309L28.4014 16.7489H39.0702Z" fill="black"/>
<path d="M101.833 36.7654H104.939V18.9364H101.833V36.7654Z" fill="black"/>
<path fill-rule="evenodd" clip-rule="evenodd" d="M84.7092 36.5833C85.3842 36.864 86.0707 37.0043 86.7686 37.0043C87.9214 37.0043 88.9531 36.7237 89.8633 36.1623C90.7734 35.6011 91.4789 34.8275 91.9796 33.8413C92.4802 32.8477 92.7304 31.7212 92.7304 30.4621C92.7304 29.203 92.4726 28.0766 91.9568 27.0829C91.4409 26.0893 90.7242 25.3194 89.8063 24.7733C88.8886 24.2195 87.8456 23.9465 86.6774 23.9541C85.9342 23.9541 85.2212 24.0982 84.5384 24.3864C83.8558 24.6747 83.2869 25.0843 82.8318 25.6152C82.7967 25.6556 82.7626 25.6965 82.7294 25.7377V18.9478H79.6119V36.7655H82.7067L82.7004 35.101C82.7804 35.1991 82.8661 35.295 82.9569 35.3887C83.4499 35.897 84.0341 36.2951 84.7092 36.5833ZM87.8949 33.7048C87.3867 34.0158 86.8064 34.1713 86.1541 34.1713C85.5093 34.1713 84.9177 34.012 84.3792 33.6935C83.8406 33.3672 83.4121 32.9236 83.0934 32.3622C82.7824 31.801 82.6269 31.1637 82.6269 30.4507C82.6194 29.7377 82.7711 29.1006 83.0821 28.5393C83.4007 27.9704 83.8292 27.5305 84.3678 27.2195C84.9063 26.9009 85.5018 26.7454 86.1541 26.753C86.8064 26.7454 87.3867 26.8971 87.8949 27.2081C88.4107 27.5115 88.8051 27.9477 89.0782 28.5165C89.3588 29.0778 89.4992 29.7226 89.4992 30.4507C89.4992 31.179 89.3588 31.8237 89.0782 32.385C88.8051 32.9463 88.4107 33.3862 87.8949 33.7048Z" fill="black"/>
<path d="M43.5701 20.0173H47.1199L50.2954 31.6143L53.6736 20.0173H56.6318L60.2954 31.3816L63.3447 20.0173H66.5987L61.7973 36.7654H58.7367L55.0112 25.6634L51.5914 36.7654H48.4967L43.5701 20.0173Z" fill="black"/>
<path fill-rule="evenodd" clip-rule="evenodd" d="M71.8413 37.0612C70.6048 37.0688 69.4898 36.7957 68.4962 36.242C67.51 35.6807 66.7327 34.9032 66.1637 33.9095C65.6024 32.9159 65.3218 31.7819 65.3218 30.5075C65.3218 29.2712 65.61 28.1524 66.1865 27.1512C66.7629 26.1499 67.5442 25.3686 68.5303 24.8073C69.5164 24.246 70.6162 23.9654 71.8298 23.9654C73.1952 23.9654 74.3898 24.2688 75.4138 24.8756C76.4454 25.4824 77.2153 26.3433 77.7235 27.4584C78.2393 28.5658 78.4252 29.8363 78.281 31.2699H68.5352C68.5624 31.841 68.7049 32.3607 68.9627 32.8287C69.2509 33.3444 69.6529 33.7464 70.1686 34.0347C70.6845 34.3229 71.2609 34.467 71.8982 34.467C72.3835 34.4594 72.8349 34.376 73.252 34.2168C73.6693 34.0499 74.0219 33.8262 74.3102 33.5454C74.606 33.2648 74.8147 32.9463 74.936 32.5898H78.19C77.9928 33.462 77.5984 34.2395 77.0068 34.9222C76.415 35.5973 75.6718 36.1244 74.7766 36.5037C73.8817 36.8829 72.9032 37.0688 71.8413 37.0612ZM68.974 28.141C68.7923 28.458 68.6663 28.7993 68.5962 29.165H75.0565C75.0097 28.703 74.867 28.2821 74.6288 27.9021C74.3557 27.4546 73.984 27.1094 73.5138 26.8667C73.0435 26.6164 72.5125 26.4913 71.9209 26.4913C71.2913 26.4913 70.7187 26.6354 70.2028 26.9236C69.687 27.2118 69.2774 27.6177 68.974 28.141Z" fill="black"/>
<path d="M95.0178 24.2271C95.0178 23.2107 95.249 22.3081 95.7118 21.5192C96.1744 20.7228 96.823 20.1046 97.6574 19.6646C98.4993 19.2171 99.4816 18.9857 100.604 18.9706V21.7354C100.081 21.743 99.6333 21.8529 99.2616 22.0653C98.8975 22.2701 98.6169 22.5697 98.4196 22.9642C98.2381 23.3273 98.1401 23.7483 98.1258 24.2271H100.536V26.8554H98.1239V36.7654H95.0178V26.8554H93.0153V24.2271H95.0178Z" fill="black"/>
<path fill-rule="evenodd" clip-rule="evenodd" d="M112.835 37.0384C111.568 37.0384 110.434 36.7615 109.433 36.2079C108.439 35.6465 107.658 34.8729 107.089 33.8867C106.528 32.8931 106.247 31.7667 106.247 30.5075C106.247 29.2409 106.528 28.1106 107.089 27.117C107.658 26.1157 108.439 25.3382 109.433 24.7845C110.434 24.2308 111.568 23.9539 112.835 23.9539C114.109 23.9539 115.247 24.2308 116.248 24.7845C117.257 25.3382 118.042 26.1119 118.603 27.1056C119.165 28.0992 119.449 29.2332 119.457 30.5075C119.449 31.7667 119.165 32.8931 118.603 33.8867C118.05 34.8729 117.268 35.6465 116.259 36.2079C115.251 36.7615 114.109 37.0384 112.835 37.0384ZM112.835 34.1826C113.502 34.1826 114.094 34.0309 114.61 33.7275C115.126 33.4165 115.524 32.9841 115.804 32.4304C116.085 31.8691 116.225 31.2281 116.225 30.5075C116.225 29.7794 116.085 29.1346 115.804 28.5733C115.524 28.012 115.126 27.5797 114.61 27.2763C114.094 26.9653 113.502 26.8098 112.835 26.8098C112.175 26.8098 111.587 26.9653 111.071 27.2763C110.563 27.5797 110.169 28.012 109.888 28.5733C109.607 29.1346 109.471 29.7794 109.478 30.5075C109.478 31.2281 109.619 31.8691 109.899 32.4304C110.188 32.9841 110.582 33.4165 111.083 33.7275C111.591 34.0309 112.175 34.1826 112.835 34.1826Z" fill="black"/>
<path d="M122.813 24.2271H119.354L123.098 36.7654H126.124L128.586 28.7572L131.244 36.7654H134.225L137.98 24.2271H134.851L132.721 32.0314L130.367 24.2271H127.341L124.999 32.2033L122.813 24.2271Z" fill="black"/>
</svg>
